<svg version="1.1" xmlns="http://www.w3.org/2000/svg" xmlns:xlink="http://www.w3.org/1999/xlink" viewBox="0 0 1000 1000" xml:space="preserve">
<path fill="none" stroke="#F1C40F" stroke-width="12" stroke-miterlimit="10" d="M596,386c66.501,0,0-117,0-117v-86
	v86C596,269,529.499,386,596,386z"/>
<g>
	<path fill="#E74C3C" d="M125,898c0,2.762,2.239,5,5,5h740c2.762,0,5-2.238,5-5v-22c0-2.762-2.238-5-5-5H130c-2.761,0-5,2.238-5,5
		V898z"/>
	<path fill="#E74C3C" d="M222,870c0,2.762,2.239,5,5,5h22c2.761,0,5-2.238,5-5V130c0-2.761-2.239-5-5-5h-22c-2.761,0-5,2.239-5,5
		V870z"/>
	<path fill="#E74C3C" d="M162,148c0,2.761,2.239,5,5,5h550c2.762,0,5-2.239,5-5v-22c0-2.761-2.238-5-5-5H167c-2.761,0-5,2.239-5,5
		V148z"/>
	<path fill="#E74C3C" d="M580,218c0,2.761,2.238,5,5,5h22c2.762,0,5-2.239,5-5v-85c0-2.761-2.238-5-5-5h-22c-2.762,0-5,2.239-5,5
		V218z"/>
</g>
</svg>
